<svg width="360" height="24" viewBox="0 0 95.25 6.35" xmlns="http://www.w3.org/2000/svg"><g aria-label="noveria.investments@gmail.com" style="font-size:5.64444px;line-height:1.25;fill:#0dcaf0;fill-opacity:1;stroke-width:.264583"><path d="M25.715 129.886q.367 0 .643.14.282.142.44.43.158.288.158.728v1.721h-.541v-1.659q0-.435-.215-.655-.209-.22-.593-.22-.287 0-.502.113-.214.113-.333.333-.113.22-.113.548v1.54h-.542v-2.991h.52v.807l-.085-.214q.147-.294.451-.458.305-.163.712-.163zM29.242 132.94q-.451 0-.801-.198-.35-.198-.553-.542-.203-.35-.203-.79 0-.446.203-.79.203-.345.553-.537.35-.197.801-.197.446 0 .796.197.356.192.553.536.204.34.204.79 0 .447-.204.79-.197.345-.553.543-.35.197-.796.197zm0-.475q.288 0 .514-.13.231-.13.361-.366.13-.243.13-.56 0-.321-.13-.552-.13-.237-.36-.367-.227-.13-.515-.13-.287 0-.513.13-.226.13-.361.367-.136.231-.136.553 0 .316.136.559.135.237.36.366.227.13.514.13zM32.245 132.905l-1.31-2.991h.565l1.163 2.71h-.271l1.185-2.71h.53l-1.309 2.992zM35.863 132.94q-.48 0-.846-.198-.362-.198-.565-.542-.197-.344-.197-.79 0-.446.192-.79.197-.345.536-.537.344-.197.773-.197.435 0 .768.192t.519.541q.192.345.192.808 0 .034-.006.079 0 .045-.005.084h-2.546v-.39h2.263l-.22.136q.006-.288-.118-.513-.124-.226-.344-.35-.215-.13-.503-.13-.282 0-.502.13-.22.124-.345.355-.124.226-.124.52v.09q0 .3.136.536.14.232.39.361.248.13.57.13.265 0 .48-.09.22-.09.383-.271l.3.35q-.204.237-.509.361-.3.124-.672.124zM37.986 132.905v-2.991h.519v.813l-.05-.203q.123-.31.417-.475.293-.163.722-.163v.525q-.034-.006-.067-.006h-.057q-.435 0-.689.26-.254.259-.254.75v1.49zM40.262 132.905v-2.991h.542v2.992zm.271-3.567q-.158 0-.265-.101-.101-.102-.101-.249 0-.152.101-.254.107-.101.265-.101.158 0 .26.101.107.096.107.243 0 .152-.101.26-.102.101-.266.101zM43.694 132.905v-.632l-.028-.118v-1.078q0-.345-.203-.53-.198-.193-.598-.193-.266 0-.52.09-.254.085-.429.232l-.225-.406q.23-.187.553-.283.327-.101.683-.101.615 0 .948.299.333.299.333.914v1.806zm-.982.034q-.333 0-.587-.112-.248-.113-.384-.31-.135-.204-.135-.458 0-.243.113-.44.118-.198.378-.316.265-.119.711-.119h.948v.39h-.925q-.407 0-.548.135-.14.135-.14.327 0 .22.174.356.175.13.485.13.305 0 .531-.136.231-.135.333-.395l.107.373q-.107.265-.378.423-.27.152-.683.152zM45.342 132.94q-.158 0-.27-.108-.113-.113-.113-.282 0-.17.113-.277.112-.107.27-.107.153 0 .26.107.113.108.113.277 0 .17-.113.282-.107.107-.26.107zM46.494 132.905v-2.991h.542v2.992zm.27-3.567q-.157 0-.264-.101-.102-.102-.102-.249 0-.152.102-.254.107-.101.265-.101.158 0 .26.101.107.096.107.243 0 .152-.102.26-.101.101-.265.101zM49.666 129.886q.367 0 .644.14.282.142.44.43.158.288.158.728v1.721h-.542v-1.659q0-.435-.214-.655-.21-.22-.593-.22-.288 0-.503.113-.214.113-.333.333-.112.22-.112.548v1.54h-.542v-2.991h.519v.807l-.085-.214q.147-.294.452-.458.305-.163.711-.163zM52.64 132.905l-1.309-2.991h.565l1.162 2.71h-.27l1.185-2.71h.53l-1.31 2.992zM56.259 132.94q-.48 0-.847-.198-.361-.198-.564-.542-.198-.344-.198-.79 0-.446.192-.79.198-.345.536-.537.345-.197.774-.197.434 0 .767.192t.52.541q.191.345.191.808 0 .034-.005.079 0 .045-.006.084h-2.545v-.39h2.263l-.22.136q.005-.288-.119-.513-.124-.226-.344-.35-.215-.13-.502-.13-.283 0-.503.13-.22.124-.344.355-.124.226-.124.52v.09q0 .3.135.536.141.232.39.361.248.13.57.13.265 0 .48-.09.22-.09.383-.271l.3.35q-.204.237-.508.361-.3.124-.672.124zM59.239 132.94q-.372 0-.711-.102-.333-.102-.525-.249l.226-.429q.192.13.474.22t.576.09q.378 0 .541-.106.17-.108.17-.3 0-.14-.102-.22-.101-.079-.27-.118-.164-.04-.368-.068-.203-.034-.406-.079-.203-.05-.373-.135-.169-.09-.27-.243-.102-.158-.102-.418 0-.27.152-.474.153-.203.43-.31.281-.113.665-.113.294 0 .593.073.305.068.497.198l-.232.429q-.203-.136-.423-.187-.22-.05-.44-.05-.356 0-.53.118-.176.113-.176.294 0 .152.102.237.107.079.27.124.17.045.373.079.203.028.407.079.203.045.366.13.17.084.271.237.108.152.108.406 0 .271-.158.469-.158.197-.446.31-.288.107-.689.107zM62.236 132.94q-.451 0-.7-.243-.248-.243-.248-.695v-2.743h.542v2.72q0 .244.118.373.125.13.35.13.254 0 .424-.14l.169.389q-.124.107-.3.158-.169.05-.355.05zm-1.456-2.58v-.446h1.908v.446zM67.288 129.886q.361 0 .638.14.276.142.429.43.158.288.158.728v1.721h-.542v-1.659q0-.435-.203-.655-.203-.22-.57-.22-.271 0-.474.113-.204.113-.317.333-.107.22-.107.548v1.54h-.542v-1.659q0-.435-.203-.655-.197-.22-.57-.22-.265 0-.468.113-.204.113-.317.333-.112.22-.112.548v1.54h-.542v-2.991h.519v.796l-.085-.203q.141-.294.435-.458.293-.163.683-.163.429 0 .74.214.31.21.406.638l-.22-.09q.135-.345.474-.553.338-.21.79-.21zM70.844 132.94q-.48 0-.847-.198-.36-.198-.564-.542-.198-.344-.198-.79 0-.446.192-.79.198-.345.536-.537.345-.197.774-.197.434 0 .767.192t.52.541q.192.345.192.808 0 .034-.006.079 0 .045-.006.084H69.66v-.39h2.263l-.22.136q.006-.288-.119-.513-.124-.226-.344-.35-.214-.13-.502-.13-.282 0-.503.13-.22.124-.344.355-.124.226-.124.52v.09q0 .3.135.536.141.232.39.361.248.13.57.13.265 0 .48-.09.22-.09.384-.271l.299.35q-.204.237-.508.361-.3.124-.672.124zM74.564 129.886q.367 0 .643.14.282.142.44.43.158.288.158.728v1.721h-.541v-1.659q0-.435-.215-.655-.209-.22-.593-.22-.287 0-.502.113-.214.113-.333.333-.113.22-.113.548v1.54h-.542v-2.991h.52v.807l-.085-.214q.147-.294.451-.458.305-.163.712-.163zM77.837 132.94q-.451 0-.7-.243-.248-.243-.248-.695v-2.743h.542v2.72q0 .244.119.373.124.13.35.13.254 0 .423-.14l.17.389q-.125.107-.3.158-.17.05-.356.05zm-1.456-2.58v-.446h1.908v.446zM80.005 132.94q-.373 0-.711-.102-.333-.102-.525-.249l.226-.429q.191.13.474.22.282.09.575.09.379 0 .542-.106.17-.108.17-.3 0-.14-.102-.22-.102-.079-.27-.118-.165-.04-.368-.068-.203-.034-.406-.079-.203-.05-.373-.135-.17-.09-.27-.243-.102-.158-.102-.418 0-.27.152-.474.153-.203.43-.31.281-.113.665-.113.294 0 .593.073.305.068.497.198l-.232.429q-.203-.136-.423-.187-.22-.05-.44-.05-.356 0-.531.118-.175.113-.175.294 0 .152.102.237.107.079.27.124.17.045.373.079.203.028.406.079.204.045.367.13.17.084.271.237.107.152.107.406 0 .271-.158.469-.158.197-.445.31-.288.107-.69.107zM84.374 134.046q-.587 0-1.073-.192-.485-.192-.835-.536-.35-.345-.542-.813-.192-.474-.192-1.033 0-.559.192-1.027.192-.469.542-.813.355-.345.847-.53.49-.187 1.083-.187.582 0 1.061.18.48.181.83.514.356.328.548.785.192.451.192.999 0 .48-.119.824-.118.344-.344.536-.22.186-.542.186-.316 0-.508-.192-.186-.191-.186-.547v-.384l.028-.344-.051-.65v-.75h.491v2.032q0 .226.09.316.096.09.232.09.164 0 .282-.13.124-.13.18-.378.063-.254.063-.604 0-.474-.164-.858-.158-.389-.463-.671-.299-.282-.711-.43-.406-.152-.909-.152-.502 0-.92.164-.412.158-.711.452-.3.288-.463.688-.158.401-.158.88 0 .486.158.893.158.4.452.688.299.294.705.452.412.163.915.163.26 0 .547-.062.288-.056.542-.186l.124.361q-.26.13-.587.198-.327.068-.626.068zm-.102-1.107q-.4 0-.711-.186-.31-.192-.491-.52-.18-.327-.18-.744 0-.424.18-.745.18-.328.49-.508.311-.187.712-.187.39 0 .683.17.294.163.457.485.17.322.17.785t-.164.784q-.164.322-.457.497-.294.17-.689.17zm.08-.44q.276 0 .49-.118.22-.125.345-.35.13-.232.13-.542 0-.316-.13-.542-.125-.226-.345-.344-.214-.119-.49-.119-.283 0-.503.124-.215.119-.339.345-.118.225-.118.536 0 .305.118.53.124.226.339.356.22.124.502.124zM89.12 134.034q-.411 0-.8-.118-.385-.113-.627-.328l.26-.417q.208.18.513.282.305.107.638.107.53 0 .779-.248.248-.248.248-.756v-.633l.056-.592-.028-.599v-.818h.514v2.585q0 .79-.395 1.163-.395.372-1.157.372zm-.067-1.253q-.435 0-.779-.18-.339-.187-.542-.514-.197-.327-.197-.756 0-.435.197-.757.203-.327.542-.508.344-.18.779-.18.384 0 .7.158.316.152.502.474.192.322.192.813 0 .485-.192.807-.186.322-.502.485-.316.158-.7.158zm.062-.474q.3 0 .53-.124.232-.124.362-.344.135-.22.135-.508 0-.288-.135-.508-.13-.22-.361-.339-.232-.124-.531-.124-.3 0-.536.124-.232.119-.367.339-.13.22-.13.508 0 .288.13.508.135.22.367.344.237.124.536.124zM95.448 129.886q.361 0 .638.14.276.142.429.43.158.288.158.728v1.721h-.542v-1.659q0-.435-.203-.655-.203-.22-.57-.22-.271 0-.474.113-.204.113-.316.333-.108.22-.108.548v1.54h-.542v-1.659q0-.435-.203-.655-.197-.22-.57-.22-.265 0-.468.113-.204.113-.316.333-.113.22-.113.548v1.54h-.542v-2.991h.52v.796l-.086-.203q.142-.294.435-.458.294-.163.683-.163.429 0 .74.214.31.21.406.638l-.22-.09q.135-.345.474-.553.339-.21.79-.21zM99.529 132.905v-.632l-.028-.118v-1.078q0-.345-.203-.53-.198-.193-.599-.193-.265 0-.519.09-.254.085-.429.232l-.226-.406q.232-.187.553-.283.328-.101.683-.101.616 0 .949.299.333.299.333.914v1.806zm-.982.034q-.333 0-.587-.112-.249-.113-.384-.31-.135-.204-.135-.458 0-.243.112-.44.119-.198.379-.316.265-.119.71-.119h.95v.39h-.927q-.406 0-.547.135-.141.135-.141.327 0 .22.175.356.175.13.485.13.305 0 .53-.136.232-.135.334-.395l.107.373q-.107.265-.378.423-.271.152-.683.152zM101.047 132.905v-2.991h.542v2.992zm.271-3.567q-.158 0-.265-.101-.102-.102-.102-.249 0-.152.102-.254.107-.101.265-.101.158 0 .26.101.107.096.107.243 0 .152-.101.26-.102.101-.266.101zM102.622 132.905v-4.188h.542v4.188zM104.327 132.94q-.158 0-.271-.108-.113-.113-.113-.282 0-.17.113-.277.113-.107.27-.107.153 0 .26.107.113.108.113.277 0 .17-.113.282-.107.107-.26.107zM106.712 132.94q-.457 0-.818-.198-.356-.198-.56-.542-.202-.344-.202-.79 0-.446.203-.79.203-.345.559-.537.36-.197.818-.197.407 0 .723.163.321.158.496.475l-.412.265q-.146-.22-.361-.322-.209-.107-.452-.107-.293 0-.524.13-.232.13-.367.367-.136.231-.136.553 0 .321.136.559.135.237.367.366.23.13.524.13.243 0 .452-.101.215-.108.361-.328l.412.26q-.175.31-.496.48-.316.163-.723.163zM109.866 132.94q-.452 0-.802-.198-.35-.198-.553-.542-.203-.35-.203-.79 0-.446.203-.79.203-.345.553-.537.35-.197.802-.197.446 0 .795.197.356.192.554.536.203.34.203.79 0 .447-.203.79-.198.345-.554.543-.35.197-.795.197zm0-.475q.287 0 .513-.13.232-.13.361-.366.13-.243.13-.56 0-.321-.13-.552-.13-.237-.36-.367-.227-.13-.514-.13-.288 0-.514.13-.226.13-.361.367-.136.231-.136.553 0 .316.136.559.135.237.361.366.226.13.514.13zM115.91 129.886q.362 0 .639.14.276.142.429.43.158.288.158.728v1.721h-.542v-1.659q0-.435-.203-.655-.204-.22-.57-.22-.271 0-.475.113-.203.113-.316.333-.107.22-.107.548v1.54h-.542v-1.659q0-.435-.203-.655-.198-.22-.57-.22-.265 0-.469.113-.203.113-.316.333-.113.22-.113.548v1.54h-.541v-2.991h.519v.796l-.085-.203q.141-.294.435-.458.293-.163.683-.163.429 0 .74.214.31.21.406.638l-.22-.09q.135-.345.474-.553.338-.21.79-.21z" style="font-weight:500;font-family:Montserrat;-inkscape-font-specification:'Montserrat Medium';fill:#0dcaf0;fill-opacity:1" transform="translate(-23.001 -128.164)"/></g></svg>